<svg id="Ebene_1" data-name="Ebene 1" xmlns="http://www.w3.org/2000/svg" viewBox="0 0 1190.551 1190.551"><defs><style>.cls-1{fill:#4c670d;}.cls-2{fill:#ffff02;}.cls-3{fill:#1a171b;}.cls-4{fill:#981305;}.cls-5{fill:#6f671c;}</style></defs><rect class="cls-1" x="-7.724" y="-14.18" width="1207" height="1219.909"/><circle class="cls-2" cx="589.321" cy="593.623" r="238.818"/><ellipse class="cls-3" cx="589.321" cy="595.775" rx="91.439" ry="176.471"/><ellipse class="cls-4" cx="589.321" cy="595.775" rx="24.742" ry="52.712"/><path class="cls-1" d="M519.7,338.669H658.942A170.273,170.273,0,0,1,829.215,508.942v6.151a0,0,0,0,1,0,0H349.427a0,0,0,0,1,0,0v-6.151A170.273,170.273,0,0,1,519.7,338.669Z"/><path class="cls-5" d="M832.442,518.32H346.2v-5.886c0-97.594,79.4-176.992,176.992-176.992H655.449c97.6,0,176.993,79.4,176.993,176.992Zm-479.787-6.454H825.988c-.309-93.775-76.694-169.97-170.539-169.97H523.192C429.347,341.9,352.962,418.091,352.655,511.866Z"/></svg>